<?xml version="1.0" encoding="UTF-8"?>
<svg id="Layer_1" xmlns="http://www.w3.org/2000/svg" viewBox="0 0 100 100">
  <defs>
    <style>
      .cls-1 {
        fill: none;
      }

      .cls-2 {
        fill: #2e222f;
      }

      .cls-3 {
        fill: #f57d4a;
      }

      .cls-4 {
        fill: #1ebc73;
      }

      .cls-4, .cls-5 {
        stroke: #2e222f;
        stroke-miterlimit: 10;
        stroke-width: 2px;
      }

      .cls-6 {
        fill: #ea4f36;
      }

      .cls-5 {
        fill: #239063;
      }
    </style>
  </defs>
  <g>
    <path class="cls-3" d="M50.91,94.68c-8.92,0-17.33-2.73-24.32-7.89-1.19-.88-2.34-1.83-3.42-2.83-7.38-6.89-11.44-16.05-11.44-25.79,0-11.83,3.49-25.3,13.31-27.56,1.64-.37,3.28-.57,5.04-.57,3.12,0,6.15.59,9.35,1.19,3.57.68,7.26,1.39,11.48,1.39s7.69-.72,11.21-1.43c3.06-.61,5.95-1.17,8.77-1.17,2.5,0,4.74.47,6.81,1.44,11.5,5.37,12.4,21.79,12.4,26.71,0,19.79-17.28,36.17-38.52,36.5h-.68.02Z"/>
    <path d="M70.9,31c2.4,0,4.43.43,6.4,1.35,8.73,4.08,11.83,16.01,11.83,25.81,0,19.27-16.85,35.22-37.54,35.53h-.66c-8.73,0-16.92-2.65-23.74-7.69-1.15-.86-2.28-1.8-3.32-2.77-7.18-6.72-11.15-15.62-11.15-25.08,0-11.46,3.3-24.48,12.57-26.61,1.56-.35,3.14-.53,4.82-.53,3.03,0,6.01.57,9.16,1.17,3.61.68,7.34,1.41,11.67,1.41s7.83-.72,11.4-1.44c3.03-.61,5.86-1.17,8.59-1.17M70.9,29.05c-6.13,0-12.45,2.6-19.97,2.6-7.95,0-14.11-2.58-20.83-2.58-1.7,0-3.46.18-5.27.59-10.74,2.48-14.07,17.1-14.07,28.5,0,10.35,4.49,19.72,11.75,26.51,1.11,1.03,2.26,2.01,3.49,2.91,6.85,5.06,15.5,8.08,24.91,8.08h.68c21.86-.35,39.47-17,39.47-37.48,0-10.91-3.51-23.17-12.96-27.58-2.42-1.13-4.8-1.54-7.22-1.54h.02Z"/>
  </g>
  <path class="cls-6" d="M91.08,58.15c0-10.91-3.51-23.17-12.96-27.58-8.55-4-53.33,56.1-52.1,57,6.85,5.06,15.5,8.08,24.91,8.08h.68c21.86-.35,39.47-17,39.47-37.48v-.02Z"/>
  <path class="cls-2" d="M70.9,34.9c1.8,0,3.32.31,4.74.98,7.07,3.3,9.58,13.66,9.58,22.27,0,17.14-15.13,31.33-33.71,31.62h-.61c-7.89,0-15.29-2.4-21.43-6.93-1.03-.76-2.05-1.6-2.99-2.48-6.38-5.95-9.9-13.86-9.9-22.23,0-10.25,2.95-21.28,9.53-22.8,1.27-.29,2.56-.43,3.94-.43,2.65,0,5.33.51,8.43,1.09,3.61.68,7.71,1.46,12.4,1.46s8.59-.8,12.16-1.5c2.83-.57,5.49-1.09,7.83-1.09M70.9,29.05c-6.13,0-12.45,2.6-19.97,2.6-7.95,0-14.11-2.58-20.83-2.58-1.7,0-3.46.18-5.27.59-10.74,2.48-14.07,17.1-14.07,28.5,0,10.37,4.49,19.74,11.75,26.51,1.11,1.03,2.26,2.01,3.49,2.91,6.85,5.06,15.5,8.08,24.91,8.08h.68c21.86-.35,39.47-17,39.47-37.48,0-10.91-3.51-23.17-12.96-27.58-2.42-1.13-4.8-1.54-7.22-1.54h.02Z"/>
  <path class="cls-4" d="M50.15,32.48s2.03-14.82-17.55-18.14c0,0,.78,17.98,17.55,18.14Z"/>
  <path class="cls-5" d="M51.65,31.6s10.64-14.23-8-29.01c0,0-9.51,19.13,8,29.01Z"/>
  <rect class="cls-1" width="100" height="100"/>
</svg>