<?xml version="1.0" encoding="UTF-8"?>
<svg id="Layer_1" data-name="Layer 1" xmlns="http://www.w3.org/2000/svg" viewBox="0 0 41.15 49.22">
  <defs>
    <style>
      .cls-1 {
        fill: #2e222f;
      }

      .cls-2 {
        fill: #f57d4a;
      }

      .cls-3 {
        fill: #1ebc73;
      }

      .cls-3, .cls-4 {
        stroke: #2e222f;
        stroke-miterlimit: 10;
        stroke-width: 2px;
      }

      .cls-5 {
        fill: #ea4f36;
      }

      .cls-4 {
        fill: #239063;
      }
    </style>
  </defs>
  <g>
    <path class="cls-2" d="M20.57,48.72c-4.57,0-8.88-1.4-12.46-4.04-.61-.45-1.2-.94-1.75-1.45-3.78-3.53-5.86-8.22-5.86-13.21,0-6.06,1.79-12.96,6.82-14.12.84-.19,1.68-.29,2.58-.29,1.6,0,3.15.3,4.79.61,1.83.35,3.72.71,5.88.71s3.94-.37,5.74-.73c1.57-.31,3.05-.6,4.49-.6,1.28,0,2.43.24,3.49.74,5.89,2.75,6.35,11.16,6.35,13.68,0,10.14-8.85,18.53-19.73,18.7h-.35Z"/>
    <path d="M30.81,16.1c1.23,0,2.27.22,3.28.69,4.47,2.09,6.06,8.2,6.06,13.22,0,9.87-8.63,18.04-19.23,18.2-.11,0-.23,0-.34,0-4.47,0-8.67-1.36-12.16-3.94-.59-.44-1.17-.92-1.7-1.42-3.68-3.44-5.71-8-5.71-12.85,0-5.87,1.69-12.54,6.44-13.63.8-.18,1.61-.27,2.47-.27,1.55,0,3.08.29,4.69.6,1.85.35,3.76.72,5.98.72s4.01-.37,5.84-.74c1.55-.31,3-.6,4.4-.6M30.81,15.1c-3.14,0-6.38,1.33-10.23,1.33-4.07,0-7.23-1.32-10.67-1.32-.87,0-1.77.09-2.7.3C1.71,16.68,0,24.17,0,30.01c0,5.3,2.3,10.1,6.02,13.58.57.53,1.16,1.03,1.79,1.49,3.51,2.59,7.94,4.14,12.76,4.14.12,0,.24,0,.35,0,11.2-.18,20.22-8.71,20.22-19.2,0-5.59-1.8-11.87-6.64-14.13-1.24-.58-2.46-.79-3.7-.79h0Z"/>
  </g>
  <path class="cls-5" d="M41.15,30.01c0-5.59-1.8-11.87-6.64-14.13-4.38-2.05-27.32,28.74-26.69,29.2,3.51,2.59,7.94,4.14,12.76,4.14.12,0,.24,0,.35,0,11.2-.18,20.22-8.71,20.22-19.2Z"/>
  <path class="cls-1" d="M30.81,18.1c.92,0,1.7.16,2.43.5,3.62,1.69,4.91,7,4.91,11.41,0,8.78-7.75,16.05-17.27,16.2h-.31c-4.04,0-7.83-1.23-10.98-3.55-.53-.39-1.05-.82-1.53-1.27-3.27-3.05-5.07-7.1-5.07-11.39,0-5.25,1.51-10.9,4.88-11.68.65-.15,1.31-.22,2.02-.22,1.36,0,2.73.26,4.32.56,1.85.35,3.95.75,6.35.75s4.4-.41,6.23-.77c1.45-.29,2.81-.56,4.01-.56M30.81,15.1c-3.14,0-6.38,1.33-10.23,1.33-4.07,0-7.23-1.32-10.67-1.32-.87,0-1.77.09-2.7.3C1.71,16.68,0,24.17,0,30.01,0,35.32,2.3,40.12,6.02,43.59c.57.53,1.16,1.03,1.79,1.49,3.51,2.59,7.94,4.14,12.76,4.14.12,0,.24,0,.35,0,11.2-.18,20.22-8.71,20.22-19.2,0-5.59-1.8-11.87-6.64-14.13-1.24-.58-2.46-.79-3.7-.79h0Z"/>
  <path class="cls-3" d="M20.18,16.86s1.04-7.59-8.99-9.29c0,0,.4,9.21,8.99,9.29Z"/>
  <path class="cls-4" d="M20.95,16.41s5.45-7.29-4.1-14.86c0,0-4.87,9.8,4.1,14.86Z"/>
</svg>