<?xml version="1.0" encoding="UTF-8"?>
<svg id="Layer_1" xmlns="http://www.w3.org/2000/svg" viewBox="0 0 100.18 100.01">
  <defs>
    <style>
      .cls-1 {
        fill: none;
      }

      .cls-2 {
        stroke: #2e222f;
        stroke-miterlimit: 10;
        stroke-width: 4px;
      }

      .cls-2, .cls-3 {
        fill: #fb6b1d;
      }

      .cls-4 {
        fill: #f79617;
      }
    </style>
  </defs>
  <polyline class="cls-2" points="98.11 19.33 98.11 79.26 90.14 79.26 90.14 20.34 98.11 20.34 98.11 79.26"/>
  <path class="cls-2" d="M78.59,99.89v-10.69c0-5.39,4.37-9.76,9.76-9.76h0c5.39,0,9.76-4.37,9.76-9.76V30.1c0-5.39-4.37-9.76-9.76-9.76H30.66c-5.39,0-9.76,4.37-9.76,9.76v69.79"/>
  <rect class="cls-3" x="62.05" y="22.46" width="38.13" height="55.08"/>
  <path class="cls-4" d="M65.82,100.01v-23.86c0-5.93,4.81-10.75,10.75-10.75h12.87c5.93,0,10.75-4.81,10.75-10.75v-10.29c0-5.93-4.81-10.75-10.75-10.75h-44.51c-5.93,0-10.75,4.81-10.75,10.75v55.64"/>
  <path class="cls-4" d="M100,33.63h-23.86c-5.93,0-37.71,31.64-31.78,31.64h55.64"/>
  <rect class="cls-1" width="99.89" height="99.89"/>
</svg>