<?xml version="1.0" encoding="UTF-8"?>
<svg id="Layer_1" xmlns="http://www.w3.org/2000/svg" viewBox="0 0 100 100">
  <defs>
    <style>
      .cls-1 {
        fill: #2e222f;
        stroke: #fff;
        stroke-width: 6px;
      }

      .cls-1, .cls-2 {
        stroke-miterlimit: 10;
      }

      .cls-3 {
        fill: none;
      }

      .cls-2 {
        stroke: #2e222f;
        stroke-width: 4px;
      }

      .cls-2, .cls-4 {
        fill: #fb6b1d;
      }

      .cls-5 {
        fill: #f79617;
      }
    </style>
  </defs>
  <path class="cls-4" d="M79.3,63.6c0-.94-.05-1.88-.14-2.8h.14v-27.81c.07,0,.13.01.2.01,6.08,0,11-4.92,11-11,0-6.08-4.92-11-11-11-.07,0-.13,0-.2.01V2s-58.8,0-58.8,0v9c-6.08,0-11,4.92-11,11s4.92,11,11,11v27.8h.14c-.09.92-.14,1.86-.14,2.8,0,16.24,13.16,29.4,29.4,29.4,16.24,0,29.4-13.16,29.4-29.4Z"/>
  <path class="cls-4" d="M79.3,63.6c0-.94-.05-1.88-.14-2.8h.14v-27.81c.07,0,.13.01.2.01,6.08,0,11-4.92,11-11,0-6.08-4.92-11-11-11-.07,0-.13,0-.2.01V2s-58.8,0-58.8,0v9c-6.08,0-11,4.92-11,11s4.92,11,11,11v27.8h.14c-.09.92-.14,1.86-.14,2.8,0,16.24,13.16,29.4,29.4,29.4,16.24,0,29.4-13.16,29.4-29.4Z"/>
  <path class="cls-2" d="M79.3,63.6c0-.94-.05-1.88-.14-2.8h.14v-27.81c.07,0,.13.01.2.01,6.08,0,11-4.92,11-11,0-6.08-4.92-11-11-11-.07,0-.13,0-.2.01V2s-58.8,0-58.8,0v9c-6.08,0-11,4.92-11,11s4.92,11,11,11v27.8h.14c-.09.92-.14,1.86-.14,2.8,0,16.24,13.16,29.4,29.4,29.4,16.24,0,29.4-13.16,29.4-29.4Z"/>
  <rect class="cls-4" x="47.89" y="-25.37" width="4.01" height="54.76" transform="translate(51.9 -47.88) rotate(90)"/>
  <path class="cls-5" d="M66.6,40.34c0-.62-.03-1.23-.07-1.83h.07V0s-31.78,0-31.78,0v38.5h.07c-.05.6-.07,1.21-.07,1.83,0,10.63,7.11,19.25,15.89,19.25s15.89-8.62,15.89-19.25Z"/>
  <circle class="cls-1" cx="79.88" cy="21.95" r="6.2"/>
  <circle class="cls-1" cx="20.78" cy="21.95" r="6.2"/>
  <rect class="cls-3" x="0" y="0" width="100" height="100" transform="translate(100 0) rotate(90)"/>
</svg>