<?xml version="1.0" encoding="UTF-8"?>
<svg id="Layer_1" xmlns="http://www.w3.org/2000/svg" viewBox="0 0 100 100">
  <defs>
    <style>
      .cls-1 {
        fill: #2e222f;
        stroke: #fff;
        stroke-width: 6px;
      }

      .cls-1, .cls-2 {
        stroke-miterlimit: 10;
      }

      .cls-3 {
        fill: none;
      }

      .cls-2 {
        stroke: #2e222f;
        stroke-width: 4px;
      }

      .cls-2, .cls-4 {
        fill: #fb6b1d;
      }

      .cls-5 {
        fill: #f79617;
      }
    </style>
  </defs>
  <path class="cls-4" d="M20.7,36.4c0,.94.05,1.88.14,2.8h-.14v27.81c-.07,0-.13-.01-.2-.01-6.08,0-11,4.92-11,11s4.92,11,11,11c.07,0,.13,0,.2-.01v9.01h58.8v-9c6.08,0,11-4.92,11-11s-4.92-11-11-11v-27.8h-.14c.09-.92.14-1.86.14-2.8,0-16.24-13.16-29.4-29.4-29.4s-29.4,13.16-29.4,29.4Z"/>
  <path class="cls-4" d="M20.7,36.4c0,.94.05,1.88.14,2.8h-.14v27.81c-.07,0-.13-.01-.2-.01-6.08,0-11,4.92-11,11s4.92,11,11,11c.07,0,.13,0,.2-.01v9.01h58.8v-9c6.08,0,11-4.92,11-11s-4.92-11-11-11v-27.8h-.14c.09-.92.14-1.86.14-2.8,0-16.24-13.16-29.4-29.4-29.4s-29.4,13.16-29.4,29.4Z"/>
  <path class="cls-2" d="M20.7,36.4c0,.94.05,1.88.14,2.8h-.14v27.81c-.07,0-.13-.01-.2-.01-6.08,0-11,4.92-11,11s4.92,11,11,11c.07,0,.13,0,.2-.01v9.01h58.8v-9c6.08,0,11-4.92,11-11s-4.92-11-11-11v-27.8h-.14c.09-.92.14-1.86.14-2.8,0-16.24-13.16-29.4-29.4-29.4s-29.4,13.16-29.4,29.4Z"/>
  <rect class="cls-4" x="48.1" y="70.62" width="4.01" height="54.76" transform="translate(-47.89 148.1) rotate(-90)"/>
  <path class="cls-5" d="M33.4,59.66c0,.62.03,1.23.07,1.83h-.07v38.5h31.78v-38.5h-.07c.05-.6.07-1.21.07-1.83,0-10.63-7.11-19.25-15.89-19.25s-15.89,8.62-15.89,19.25Z"/>
  <circle class="cls-1" cx="20.12" cy="78.06" r="6.2"/>
  <circle class="cls-1" cx="79.22" cy="78.06" r="6.2"/>
  <rect class="cls-3" x="0" y="0" width="100" height="100" transform="translate(0 100) rotate(-90)"/>
</svg>