<?xml version="1.0" encoding="UTF-8"?>
<svg id="Layer_1" xmlns="http://www.w3.org/2000/svg" viewBox="0 0 100 100">
  <defs>
    <style>
      .cls-1 {
        fill: #2e222f;
        stroke: #fff;
        stroke-width: 6px;
      }

      .cls-1, .cls-2 {
        stroke-miterlimit: 10;
      }

      .cls-3 {
        fill: none;
      }

      .cls-2 {
        stroke: #2e222f;
        stroke-width: 4px;
      }

      .cls-2, .cls-4 {
        fill: #fb6b1d;
      }

      .cls-5 {
        fill: #f79617;
      }
    </style>
  </defs>
  <path class="cls-4" d="M63.6,20.7c-.94,0-1.88.05-2.8.14v-.14h-27.81c0-.07.01-.13.01-.2,0-6.08-4.92-11-11-11s-11,4.92-11,11c0,.07,0,.13.01.2H2v58.8h9c0,6.08,4.92,11,11,11s11-4.92,11-11h27.8v-.14c.92.09,1.86.14,2.8.14,16.24,0,29.4-13.16,29.4-29.4s-13.16-29.4-29.4-29.4Z"/>
  <path class="cls-4" d="M63.6,20.7c-.94,0-1.88.05-2.8.14v-.14h-27.81c0-.07.01-.13.01-.2,0-6.08-4.92-11-11-11s-11,4.92-11,11c0,.07,0,.13.01.2H2v58.8h9c0,6.08,4.92,11,11,11s11-4.92,11-11h27.8v-.14c.92.09,1.86.14,2.8.14,16.24,0,29.4-13.16,29.4-29.4s-13.16-29.4-29.4-29.4Z"/>
  <path class="cls-2" d="M63.6,20.7c-.94,0-1.88.05-2.8.14v-.14h-27.81c0-.07.01-.13.01-.2,0-6.08-4.92-11-11-11s-11,4.92-11,11c0,.07,0,.13.01.2H2v58.8h9c0,6.08,4.92,11,11,11s11-4.92,11-11h27.8v-.14c.92.09,1.86.14,2.8.14,16.24,0,29.4-13.16,29.4-29.4s-13.16-29.4-29.4-29.4Z"/>
  <rect class="cls-4" x="0" y="22.73" width="4.01" height="54.76"/>
  <path class="cls-5" d="M40.34,33.4c-.62,0-1.23.03-1.83.07v-.07H0v31.78h38.5v-.07c.6.05,1.21.07,1.83.07,10.63,0,19.25-7.11,19.25-15.89s-8.62-15.89-19.25-15.89Z"/>
  <circle class="cls-1" cx="21.95" cy="20.12" r="6.2"/>
  <circle class="cls-1" cx="21.95" cy="79.22" r="6.2"/>
  <rect class="cls-3" x="0" width="100" height="100"/>
</svg>